<?xml version="1.0" encoding="UTF-8"?>
<svg version="1.1" xmlns="http://www.w3.org/2000/svg" width="925" height="1022">
<path d="M0 0 C1.25804443 0.19287598 1.25804443 0.19287598 2.54150391 0.38964844 C62.21391781 9.99491514 118.94102266 47.92037105 158 93 C159.62325545 94.75161832 161.24834602 96.5015373 162.875 98.25 C168.05634085 103.94947494 172.77967104 109.93612208 177.47558594 116.03417969 C179.08578787 118.11062843 180.71660444 120.1695593 182.3515625 122.2265625 C190.7465053 132.82668798 198.52649776 143.73387212 206 155 C206.52416504 155.78568359 207.04833008 156.57136719 207.58837891 157.38085938 C224.19538627 182.3296825 239.22869448 208.30938667 253.4375 234.6875 C253.99759766 235.72366455 254.55769531 236.7598291 255.13476562 237.82739258 C259.49255192 245.97618334 263.63347696 254.22660173 267.75805664 262.49536133 C268.36547973 263.71187654 268.97296472 264.92836085 269.580513 266.14481354 C271.05428241 269.09623997 272.52742784 272.04797608 274 275 C274.07019467 249.55620064 274.12303936 224.11241586 274.15543652 198.66853905 C274.17088134 186.8535373 274.19192518 175.03859585 274.22631836 163.22363281 C274.25629382 152.92133181 274.27559232 142.6190745 274.28226548 132.3167311 C274.28616396 126.86570489 274.29527598 121.41480362 274.31719017 115.9638176 C274.33768416 110.82402957 274.34380789 105.68441692 274.33932304 100.5445919 C274.3401425 98.66699582 274.34603068 96.78939333 274.35761642 94.91183281 C274.87781151 79.06530518 274.87781151 79.06530518 271 64 C268.11233254 62.60371142 268.11233254 62.60371142 265 62 C263.03917036 61.29860663 261.08072318 60.59050848 259.125 59.875 C258.15820312 59.52179688 257.19140625 59.16859375 256.1953125 58.8046875 C255.47085937 58.53914063 254.74640625 58.27359375 254 58 C254 57.67 254 57.34 254 57 C259.94 56.505 259.94 56.505 266 56 C261.87935082 50.06626518 256.72376814 47.4450066 250 45 C250 44.34 250 43.68 250 43 C283.66 43 317.32 43 352 43 C348.71064434 46.28935566 345.40493706 48.15349494 341.375 50.40234375 C338.9481087 52.03490714 337.59428728 53.57185852 336 56 C339.96 56.495 339.96 56.495 344 57 C341.35093163 58.76604558 339.94196126 59.33379072 337 60.125 C333.37444107 61.466324 333.09045513 61.83115043 331.125 65.5 C330.70250422 66.98732052 330.33011581 68.48948732 330 70 C329.82200426 70.78188596 329.64400852 71.56377192 329.46061897 72.36935139 C327.9615755 79.81045743 327.72806436 86.97495771 327.77294922 94.54956055 C327.77251114 96.51243767 327.77251114 96.51243767 327.77206421 98.51496887 C327.77149544 102.06797966 327.78317174 105.62085265 327.79721212 109.1738317 C327.80979968 112.90004493 327.81089626 116.62626207 327.81326294 120.35249329 C327.8194543 127.39285139 327.83583305 134.43314663 327.85596192 141.47347718 C327.8783943 149.49533619 327.88933272 157.51719836 327.89935279 165.53908098 C327.92020163 182.02609065 327.95533152 198.51303728 328 215 C330.352991 212.49100395 332.70580634 209.98184322 335.05859375 207.47265625 C335.71484741 206.77289673 336.37110107 206.07313721 337.04724121 205.35217285 C343.12778391 198.86713455 349.19414864 192.36894703 355.25732422 185.86767578 C357.02605322 183.97207802 358.79605249 182.07767412 360.56640625 180.18359375 C366.06070858 174.30409592 371.54708175 168.41792394 377 162.5 C383.04314896 155.94151256 389.12815607 149.42255175 395.21777344 142.90722656 C398.14668653 139.77288833 401.07326525 136.63637215 404 133.5 C407.52225277 129.7254538 411.04503399 125.9514082 414.5703125 122.1796875 C424.44440534 111.61557449 424.44440534 111.61557449 434.24609375 100.984375 C435.98326076 99.08928372 437.74278293 97.23547149 439.53515625 95.390625 C446.33415628 88.26245802 452.22413749 80.44317074 452.5625 70.25 C451.96783494 61.23953164 448.63956848 55.11676781 442 49 C439.88570689 47.50668808 437.76170209 46.17400781 435.50390625 44.91015625 C435.00761719 44.60980469 434.51132812 44.30945313 434 44 C434 43.67 434 43.34 434 43 C460.4 43 486.8 43 514 43 C512.3825287 46.2349426 508.91329197 47.03378414 505.75 48.5 C497.6506037 52.41353595 490.87228466 57.2201483 484 63 C483.41976074 63.48017578 482.83952148 63.96035156 482.24169922 64.45507812 C469.05705923 74.44356872 469.05705923 74.44356872 459 87 C458.34 87 457.68 87 457 87 C456.77699219 87.55171875 456.55398438 88.1034375 456.32421875 88.671875 C454.58445903 91.7305676 452.34235518 93.8073812 449.8125 96.25 C445.91187346 100.05927994 442.21478657 103.95832887 438.67578125 108.10546875 C436.23345816 110.86660325 433.59445739 113.41468811 430.96875 116 C429.06013545 117.93891002 427.27289448 119.93699551 425.5 122 C423.10323412 124.78896393 420.62040609 127.41990785 418 130 C415.40017817 132.55990134 412.93731602 135.1677954 410.5625 137.9375 C407.28869347 141.74824063 403.76636029 145.25078165 400.19140625 148.77734375 C397.57898932 151.4270144 395.16697379 154.21172803 392.74609375 157.03515625 C390.90384325 159.10820324 388.97598338 161.05435802 387 163 C383.1231238 166.82418079 379.47768789 170.80916599 376 175 C375.12794922 176.01320313 375.12794922 176.01320313 374.23828125 177.046875 C373.62533203 178.01367188 373.62533203 178.01367188 373 179 C374.34044342 183.02133026 376.91368961 184.05047458 380.375 186.125 C396.31404439 196.06386798 409.65132566 208.99382689 420.66503906 224.16455078 C422.12452392 226.171209 423.60498287 228.16148505 425.0859375 230.15234375 C439.15750245 249.20138984 451.03328419 269.59472205 463 290 C463.60634277 291.03350586 464.21268555 292.06701172 464.83740234 293.13183594 C470.1764413 302.24108274 475.50679348 311.35412823 480.71484375 320.5390625 C493.19093439 342.49188908 506.61745347 363.45129306 523.12890625 382.6015625 C525 385 525 385 525 387 C525.66 387 526.32 387 527 387 C528.48046875 388.50390625 528.48046875 388.50390625 530.1875 390.5625 C537.1558643 398.69699873 544.80274522 405.22166318 553.30126953 411.69824219 C554.77441741 412.82713332 556.23063169 413.97805663 557.68359375 415.1328125 C587.47510285 438.09225945 623.60215876 442.7676164 660.01953125 438.42431641 C670.83464249 436.88461594 681.65005772 434.49270498 692 431 C694.875 430.875 694.875 430.875 697 431 C696.67 433.31 696.34 435.62 696 438 C684.013289 442.03517511 672.02697415 445.99408536 659.6875 448.8125 C658.9042334 448.99449951 658.1209668 449.17649902 657.31396484 449.36401367 C654.55088827 449.96793294 651.78289807 450.49428671 649 451 C648.31825714 451.12528076 647.63651428 451.25056152 646.93411255 451.37963867 C634.53028914 453.60552777 622.44104255 454.47735834 609.84594727 454.39111328 C607.06671974 454.37502443 604.28894989 454.39108222 601.50976562 454.41015625 C585.25218462 454.43010464 568.82249328 453.03006871 553.1875 448.3125 C552.32769531 448.05903809 551.46789062 447.80557617 550.58203125 447.54443359 C542.21302103 444.95705599 534.59253662 441.33177253 527 437 C525.88367188 436.37222656 524.76734375 435.74445313 523.6171875 435.09765625 C501.33296489 421.96875883 485.05131741 404.12044152 472 382 C471.53392334 381.2457373 471.06784668 380.49147461 470.58764648 379.71435547 C467.15564904 374.12617187 464.168066 368.51687155 461.5625 362.5 C460.94242065 361.06938232 460.94242065 361.06938232 460.30981445 359.60986328 C451.69282914 339.19423654 444.80125897 318.01702662 437.5703125 297.08203125 C429.08269027 272.54543173 420.44956803 247.86655352 408 225 C407.50371094 224.07960938 407.00742187 223.15921875 406.49609375 222.2109375 C398.30915607 207.80014256 385.4602219 193.03124799 369.5859375 187.09765625 C364.97749864 186.92362155 362.27038463 189.84248209 359.04345703 192.78271484 C356.8466526 194.8835845 354.70047143 197.02684452 352.5625 199.1875 C351.83740234 199.90486328 351.11230469 200.62222656 350.36523438 201.36132812 C345.97556476 205.76677374 342.08277936 210.30826564 338.42553711 215.34106445 C337.95510986 215.88851318 337.48468262 216.43596191 337 217 C336.34 217 335.68 217 335 217 C334.7525 217.556875 334.505 218.11375 334.25 218.6875 C333 221 333 221 330.9375 223.5 C327.46023097 227.98679875 327.84251679 232.52630731 327.82299805 238.03125 C327.81642685 238.83851532 327.80985565 239.64578064 327.80308533 240.47750854 C327.78337038 243.15167346 327.77168353 245.82578179 327.76171875 248.5 C327.75764322 249.42016907 327.7535677 250.34033813 327.74936867 251.28839111 C327.72849924 256.17435479 327.71421052 261.06029046 327.70483398 265.94628906 C327.69386653 270.93959793 327.65958328 275.93244911 327.61966228 280.92559814 C327.59320088 284.80725798 327.58511557 288.6888146 327.58155251 292.57055664 C327.57674923 294.40733879 327.56532003 296.24411838 327.54651451 298.08081055 C327.45291149 307.84262451 327.9089218 317.18688294 329.77661133 326.7890625 C329.93189898 327.59644867 330.08718664 328.40383484 330.24717999 329.23568726 C332.10874254 337.88490346 335.36707306 345.29994015 342.9921875 350.30859375 C344.36131386 351.15364061 345.74090884 351.98208333 347.1328125 352.7890625 C349 354 349 354 352 357 C340.45 357.33 328.9 357.66 317 358 C330.13589315 381.30057237 343.7542309 404.4463832 361 425 C361.41652832 425.5053125 361.83305664 426.010625 362.26220703 426.53125 C374.14790567 440.93506914 386.94872911 453.90958987 402 465 C402.83660156 465.63164063 403.67320312 466.26328125 404.53515625 466.9140625 C434.50620532 488.82945397 465.83059993 494.07610463 502.1875 492.5 C503.33025391 492.45230469 504.47300781 492.40460938 505.65039062 492.35546875 C508.43368618 492.23901287 511.21687666 492.12048985 514 492 C514 493.98 514 495.96 514 498 C504.24871778 501.25042741 492.88460034 500.24220213 482.6875 500.25 C481.49288651 500.25101212 481.49288651 500.25101212 480.2741394 500.25204468 C467.30463142 500.23464904 454.74924029 499.54884458 442 497 C441.13987305 496.83371094 440.27974609 496.66742187 439.39355469 496.49609375 C398.89167043 488.44047036 361.29529056 466.26268996 331.328125 438.1796875 C329.32526948 436.30453082 327.28280696 434.51956597 325.1875 432.75 C316.15074815 424.88951957 307.7101943 416.15585573 300 407 C299.13375 406.01128906 298.2675 405.02257812 297.375 404.00390625 C290.09100195 395.67345421 283.2909205 387.03845229 276.64648438 378.19189453 C274.95148533 375.93541449 273.2496361 373.68422064 271.546875 371.43359375 C270.44752451 369.97685837 269.3485522 368.51983749 268.25 367.0625 C267.73630859 366.38203613 267.22261719 365.70157227 266.69335938 365.00048828 C263.11707137 360.23414275 263.11707137 360.23414275 262 358 C259.1840151 357.53101037 259.1840151 357.53101037 255.9375 357.375 C254.83277344 357.30023437 253.72804688 357.22546875 252.58984375 357.1484375 C251.73519531 357.09945313 250.88054687 357.05046875 250 357 C251.50663783 353.98672434 254.03166411 353.38943382 257 352 C254.26754022 346.31852186 251.23464636 341.03871871 247.8125 335.75 C229.9506625 307.76028759 213.54216849 278.98694861 197.359375 250.00390625 C194.11571273 244.19842421 190.84184762 238.41037745 187.5625 232.625 C183.48862826 225.43793463 179.45866446 218.22828656 175.46191406 210.99804688 C169.45706704 200.13683772 163.35056534 189.34826152 157.06323242 178.64794922 C153.78336293 173.06580556 150.54944507 167.46198362 147.36572266 161.82446289 C138.04721047 145.34079926 127.89201246 129.48488464 117 114 C116.56413574 113.37722168 116.12827148 112.75444336 115.67919922 112.11279297 C111.54242572 106.20951373 107.35172355 100.4057918 102.83862305 94.78271484 C102.11942184 93.88596039 101.40022064 92.98920593 100.65922546 92.0652771 C100.11168106 91.38373566 99.56413666 90.70219421 99 90 C98.23142678 140.5080492 97.85379762 191.01820299 97.77160454 241.53179473 C97.76973231 242.68239102 97.76973231 242.68239102 97.76782227 243.85623169 C97.76658922 244.62206394 97.76535618 245.3878962 97.76408577 246.17693549 C97.75466896 251.57273075 97.73730881 256.96846481 97.71655273 262.36422729 C97.69110434 269.0281236 97.67685571 275.69193625 97.67626166 282.35588282 C97.67571682 285.79644516 97.67055886 289.23682511 97.6523819 292.67734337 C97.18183285 324.56158199 97.18183285 324.56158199 112.6796875 351.4765625 C114 353 114 353 114 355 C114.56589844 355.26167969 115.13179687 355.52335937 115.71484375 355.79296875 C118.19362873 357.10227569 120.31288857 358.64104242 122.5625 360.3125 C127.73860566 363.99980031 133.14029377 366.58259268 139 369 C139 369.33 139 369.66 139 370 C109.96 370 80.92 370 51 370 C54.06795737 367.69903197 55.86786344 366.51967249 59.25 365.1875 C63.38652043 363.42249375 66.68894834 361.18881748 70.17578125 358.3671875 C72 357 72 357 74.10546875 356.0703125 C76.50464058 354.71490409 76.91167894 353.4934951 78 351 C78.92514013 349.67875882 79.86366785 348.36683127 80.8125 347.0625 C92.07580906 330.18130574 91.31252641 310.4844769 91.41748047 291.02294922 C91.43659659 288.7364345 91.45638049 286.44992529 91.47677612 284.16342163 C91.53903185 276.71057803 91.57998963 269.257693 91.6171875 261.8046875 C91.62378214 260.53254347 91.63037679 259.26039945 91.63717127 257.9497056 C91.69865642 245.93722603 91.75233131 233.92474285 91.78600883 221.91215324 C91.79390529 219.14374633 91.80191175 216.37533978 91.81005859 213.60693359 C91.81308368 212.57506665 91.81308368 212.57506665 91.81616987 211.5223539 C91.85022867 200.36396037 91.93254064 189.20645006 92.03410457 178.04848824 C92.1378567 166.55455491 92.19495172 155.06121729 92.21040261 143.56680691 C92.22029351 137.12781207 92.25024362 130.69039941 92.3298912 124.25185776 C92.40380695 118.19851308 92.42038799 112.14764886 92.39387894 106.09393692 C92.3939865 103.88040467 92.41444393 101.66675955 92.4573822 99.4536438 C92.91685382 85.7791443 92.91685382 85.7791443 86.8137418 74.0311538 C84.33971845 71.50057698 81.72623929 69.2593204 79 67 C77.58693609 65.55823848 76.18827123 64.10181365 74.8203125 62.6171875 C66.71067752 54.34080637 58.37491365 46.81159017 49 40 C47.95585937 39.23429687 46.91171875 38.46859375 45.8359375 37.6796875 C4.74479941 8.41627154 -41.02615522 -0.72830483 -90.96191406 7.48730469 C-96.60967551 8.47131644 -102.24014953 9.53015097 -107.85961914 10.66455078 C-110 11 -110 11 -114 11 C-114.33 9.02 -114.66 7.04 -115 5 C-76.55307041 -2.88498982 -38.98084198 -6.14456369 0 0 Z " fill="#0E153C" transform="translate(217,266)"/>
</svg>
